<svg width="1024" height="56" viewBox="0 0 1024 56" fill="none" xmlns="http://www.w3.org/2000/svg" class="fill-cultured">
<path d="M0 63.4121L34.1333 49.7551C68.2667 35.8416 136.533 8.91223 204.8 1.85931C273.067 -5.19361 341.333 8.91223 409.6 25.7751C477.867 42.8945 546.133 63.4121 614.4 83.9297C682.667 104.447 750.933 124.965 819.2 111.308C887.467 97.3943 955.733 49.9474 989.867 25.7751L1024 1.85931V166H989.867C955.733 166 887.467 166 819.2 166C750.933 166 682.667 166 614.4 166C546.133 166 477.867 166 409.6 166C341.333 166 273.067 166 204.8 166C136.533 166 68.2667 166 34.1333 166H0V63.4121Z" fill="#F8F8F8"/>
</svg>
